HIERARCHY
ROOT root
{
	OFFSET	0	13.1	24.9
	CHANNELS 6  Xposition Yposition Zposition Xrotation Yrotation Zrotation
	JOINT spine_1
	{
		OFFSET	0	9.99999	0
		CHANNELS 3  Xrotation Yrotation Zrotation
		JOINT spine_2
		{
			OFFSET	0	112	-10
			CHANNELS 3  Xrotation Yrotation Zrotation
			JOINT spine_3
			{
				OFFSET	0	206.5	19.3
				CHANNELS 3  Xrotation Yrotation Zrotation
				JOINT spine_4
				{
					OFFSET	0	110.4	14.6
					CHANNELS 3  Xrotation Yrotation Zrotation
					JOINT neck_1
					{
						OFFSET	0	71.8	-50.3
						CHANNELS 3  Xrotation Yrotation Zrotation
						JOINT neck_2
						{
							OFFSET	0	86.2	-25.8
							CHANNELS 3  Xrotation Yrotation Zrotation
							JOINT head_ee
							{
								OFFSET	0	179.8	-8.7
								CHANNELS 3  Xrotation Yrotation Zrotation
								End Site
								{
									OFFSET	1	0	0
								}
							}
						}
					}
					JOINT left_clavicle
					{
						OFFSET	-43.2	22.4	-70.8
						CHANNELS 3  Xrotation Yrotation Zrotation
						JOINT left_shoulder
						{
							OFFSET	-93.9	-5.79999	48.7
							CHANNELS 3  Xrotation Yrotation Zrotation
							JOINT left_elbow
							{
								OFFSET	-291.4	-30.8	15.2
								CHANNELS 3  Xrotation Yrotation Zrotation
								JOINT left_lowarm_twist
								{
									OFFSET	-110.7	-3.89999	13.6
									CHANNELS 3  Xrotation Yrotation Zrotation
									JOINT left_hand
									{
										OFFSET	-110.7	-3.89999	13.6
										CHANNELS 3  Xrotation Yrotation Zrotation
										JOINT left_ee
										{
											OFFSET	-80.8	-5.10001	12.1
											CHANNELS 3  Xrotation Yrotation Zrotation
											End Site
											{
												OFFSET	1	0	0
											}
										}
									}
								}
							}
						}
					}
					JOINT right_clavicle
					{
						OFFSET	43.2	22.4	-70.8
						CHANNELS 3  Xrotation Yrotation Zrotation
						JOINT right_shoulder
						{
							OFFSET	93.9	-5.79999	48.7
							CHANNELS 3  Xrotation Yrotation Zrotation
							JOINT right_elbow
							{
								OFFSET	291.4	-30.8	15.2
								CHANNELS 3  Xrotation Yrotation Zrotation
								JOINT right_lowarm_twist
								{
									OFFSET	110.7	-3.89999	13.6
									CHANNELS 3  Xrotation Yrotation Zrotation
									JOINT right_hand
									{
										OFFSET	110.7	-3.89999	13.6
										CHANNELS 3  Xrotation Yrotation Zrotation
										JOINT right_ee
										{
											OFFSET	80.8	-5.10001	12.1
											CHANNELS 3  Xrotation Yrotation Zrotation
											End Site
											{
												OFFSET	1	0	0
											}
										}
									}
								}
							}
						}
					}
				}
			}
		}
	}
	JOINT left_hip
	{
		OFFSET	-82.8	-127.5	0.300001
		CHANNELS 3  Xrotation Yrotation Zrotation
		JOINT left_knee
		{
			OFFSET	-28.2	-396.7	2.2
			CHANNELS 3  Xrotation Yrotation Zrotation
			JOINT left_ankle
			{
				OFFSET	-11.7	-411.3	35.4
				CHANNELS 3  Xrotation Yrotation Zrotation
				JOINT left_toes
				{
					OFFSET	0	-60	-88.6
					CHANNELS 3  Xrotation Yrotation Zrotation
					JOINT left_foot_ee
					{
						OFFSET	-22.5	-16.5	-42.2
						CHANNELS 3  Xrotation Yrotation Zrotation
						End Site
						{
							OFFSET	1	0	0
						}
					}
				}
			}
		}
	}
	JOINT right_hip
	{
		OFFSET	82.8	-127.5	0.300001
		CHANNELS 3  Xrotation Yrotation Zrotation
		JOINT right_knee
		{
			OFFSET	28.2	-396.7	2.2
			CHANNELS 3  Xrotation Yrotation Zrotation
			JOINT right_ankle
			{
				OFFSET	11.7	-411.3	35.4
				CHANNELS 3  Xrotation Yrotation Zrotation
				JOINT right_toes
				{
					OFFSET	0	-60	-88.6
					CHANNELS 3  Xrotation Yrotation Zrotation
					JOINT right_foot_ee
					{
						OFFSET	22.5	-16.5	-42.2
						CHANNELS 3  Xrotation Yrotation Zrotation
						End Site
						{
							OFFSET	1	0	0
						}
					}
				}
			}
		}
	}
}
MOTION
Frames: 10
Frame Time: 0.02
849.141015484 615.076 -1931.07409744 -2.88693185077 26.1916340993 13.4090424025 2.61106 -0.793752 -6.47915 2.63432 -0.380753 -6.51632 2.67271 0.697597 -6.49016 2.61414 -0.33391 -6.51888 -6.92469 -1.67338 7.65314 -6.74049 -8.64799 7.34433 -0.0 0.0 -0.0 10.2543 5.68034 19.7781 -9.57613 -23.1999 68.769 2.10149 -46.1457 0.895268 -11.2563 -0.529749 1.33581 -1.75047 9.93451 -7.11901 -0.0 0.0 -0.0 -3.2472 -15.5076 3.35283 -14.4699 15.7831 -61.9107 0.717954 19.5781 -0.123872 25.0018 -0.193609 3.16265 3.45747 18.1609 -15.4647 0.0 0.0 0.0 11.1065 -23.0982 -6.42608 -8.00493 0.245881 1.20291 41.8342 26.3208 -5.38739 -40.1039 0.0 0.0 -0.0 0.0 -0.0 18.5101 -5.67936 -3.96931 -43.5225 0.705937 -6.48422 -13.1872 22.0367 -2.2967 26.0849 -0.0 -0.0 0.0 0.0 0.0 
844.562659919 612.654 -1937.59077783 -3.30406058705 25.2419843469 13.4445478027 2.82173 -0.886028 -6.31229 2.84375 -0.483395 -6.35564 2.89156 0.544757 -6.3507 2.83563 -0.462969 -6.35715 -7.5783 0.34335 6.66489 -7.44802 -4.1234 6.71019 -0.0 0.0 -0.0 10.3047 5.91674 19.8561 -8.86374 -23.0407 67.9696 2.23275 -47.8759 0.991289 -10.0921 -0.462882 1.20272 -1.64858 9.50919 -6.66085 -0.0 0.0 -0.0 -2.90434 -15.5375 2.79738 -14.8509 15.9788 -61.3171 0.688069 18.8217 -0.114044 25.6155 -0.180932 3.24003 3.50181 19.2598 -15.2077 0.0 0.0 0.0 11.2014 -21.3848 -6.33267 -6.55579 0.213877 0.982842 41.9343 26.3012 -5.396 -40.0802 0.0 0.0 -0.0 0.0 -0.0 22.0059 -9.01515 -3.76687 -44.0819 0.746667 -6.56003 -16.1115 21.8748 -2.80861 23.7422 -0.0 -0.0 0.0 0.0 0.0 
836.822446515 613.924 -1943.20375762 -3.89110328769 25.3741018381 13.4799042509 2.92389 -0.886845 -6.25104 2.94548 -0.488085 -6.29456 2.9928 0.519068 -6.2921 2.93792 -0.479141 -6.29525 -7.68938 1.83817 6.60203 -7.56522 -1.28271 6.95352 -0.0 0.0 -0.0 10.1429 7.28817 19.411 -9.62751 -22.0455 67.6506 2.44657 -50.4658 1.15312 -9.98399 -0.456811 1.1903 -1.59111 9.41541 -6.33303 -0.0 0.0 -0.0 -2.77317 -15.5175 2.5912 -14.7429 15.6468 -61.5161 0.661128 18.1339 -0.105505 27.013 -0.148974 3.41568 3.61276 21.1589 -14.9753 0.0 0.0 0.0 11.3257 -20.0115 -6.17399 -6.32302 0.208218 0.947568 42.632 26.0544 -5.4512 -39.3245 0.0 0.0 -0.0 0.0 -0.0 23.9513 -11.1544 -3.46996 -40.0951 0.472826 -6.01159 -20.5827 21.1776 -3.56925 21.7063 -0.0 -0.0 0.0 0.0 0.0 
828.622269588 617.14 -1947.05600183 -4.27279221324 25.4374499377 13.2483789972 2.85408 -0.915946 -6.11713 2.87473 -0.525598 -6.16278 2.92568 0.468009 -6.1674 2.87301 -0.509991 -6.16409 -7.79221 3.19705 7.16799 -7.64931 0.858668 7.79845 -0.0 0.0 -0.0 9.94483 8.09719 18.9516 -10.0095 -21.1664 67.2462 2.62407 -52.4201 1.29195 -9.9795 -0.456559 1.18978 -1.53515 9.08949 -6.12245 -0.0 0.0 -0.0 -2.49383 -15.2616 2.19051 -14.5797 15.199 -61.3317 0.653586 17.9403 -0.10317 27.9198 -0.125949 3.52923 3.69141 22.4767 -14.8066 0.0 0.0 0.0 11.8305 -19.6175 -5.37456 -6.19094 0.204943 0.927563 42.821 25.7753 -5.45814 -38.8088 0.0 0.0 -0.0 0.0 -0.0 24.3916 -11.8972 -2.40687 -35.7393 0.218186 -5.39264 -22.6302 20.6436 -3.90357 20.2835 -0.0 -0.0 0.0 0.0 0.0 
819.945356934 618.431 -1956.28653605 -4.25985905142 27.1155398704 13.3634292202 2.76485 -0.919745 -5.97597 2.78454 -0.538321 -6.02216 2.83632 0.442201 -6.02995 2.78599 -0.513892 -6.02428 -9.13691 4.23137 10.4178 -8.83358 0.724625 11.2143 -0.0 0.0 -0.0 9.49702 8.31391 18.0801 -11.4844 -20.3892 65.9196 2.90431 -55.1873 1.51816 -8.79468 -0.391576 1.05287 -1.52239 9.07128 -6.04825 -0.0 0.0 -0.0 -2.35901 -16.6976 1.72053 -14.875 16.0431 -61.5263 0.654917 17.9745 -0.103581 28.947 -0.0976972 3.6574 3.7299 23.1515 -14.7022 0.0 0.0 0.0 10.8247 -18.9584 -6.65709 -8.78499 0.260799 1.32169 42.7927 25.6895 -5.45246 -34.547 0.0 0.0 -0.0 0.0 -0.0 22.858 -11.2485 -3.71391 -25.6196 -0.18677 -3.89449 -21.723 16.9239 -3.62291 15.2621 -0.0 -0.0 0.0 0.0 0.0 
812.644856599 621.39 -1960.5783051 -4.16733859916 27.8881005136 13.5940223865 2.89321 -0.844478 -5.95309 2.91279 -0.464653 -5.99456 2.95588 0.498275 -5.99187 2.9061 -0.452533 -5.99549 -9.75796 5.37016 11.1989 -9.41109 2.45373 12.2345 -0.0 0.0 -0.0 9.60156 9.36023 18.1792 -11.6539 -19.5447 65.676 2.98117 -55.8849 1.58153 -7.78822 -0.338616 0.935539 -1.07741 7.61988 -3.82071 -0.0 0.0 -0.0 -2.38907 -17.3822 1.64575 -13.0235 16.6144 -61.8901 0.580651 16.0474 -0.0818507 29.8975 -0.0695131 3.77553 3.27429 20.2424 -13.1588 0.0 0.0 0.0 11.0727 -17.6663 -7.19569 -10.3759 0.286206 1.56448 42.7361 25.521 -5.44124 -31.596 0.0 0.0 -0.0 0.0 -0.0 19.9251 -10.3209 -5.49224 -14.2211 -0.319708 -2.1534 -19.9785 13.7724 -3.25042 10.5328 -0.0 -0.0 0.0 0.0 0.0 
802.010013741 625.348 -1965.87426787 -4.21093349727 28.4380278188 13.9130554055 2.935 -0.871288 -6.13342 2.95578 -0.479999 -6.17621 3.00141 0.507253 -6.17404 2.94857 -0.472276 -6.1768 -10.0274 6.34681 11.5284 -9.66475 4.12912 12.7868 -0.0 0.0 -0.0 9.23284 10.0735 17.4263 -12.7997 -19.4593 65.809 3.06542 -56.6218 1.65159 -6.51953 -0.274814 0.786366 -0.910127 10.2919 -1.56089 -0.0 0.0 -0.0 -2.68039 -18.2642 1.93231 -12.0024 17.1852 -62.3707 0.544141 15.0858 -0.0720525 30.797 -0.0410362 3.88689 3.12867 19.8242 -12.3864 0.0 0.0 0.0 10.1616 -17.1585 -7.93876 -11.3343 0.298253 1.71104 42.6331 26.1586 -5.45517 -28.4506 0.0 0.0 -0.0 0.0 -0.0 18.0717 -9.33995 -6.5466 -4.28142 -0.152449 -0.639231 -13.995 12.5492 -2.24933 8.6437 -0.0 -0.0 0.0 0.0 0.0 
794.606199953 626.476 -1967.91964936 -5.32604948024 30.1151092678 14.7699770158 3.31539 -0.904781 -6.16725 3.33639 -0.511285 -6.21209 3.38344 0.4403 -6.2175 3.32995 -0.545221 -6.20921 -10.2714 6.67884 11.6643 -9.90227 4.7205 13.002 -0.0 0.0 -0.0 9.12439 9.89446 17.2427 -13.4909 -18.7444 66.283 3.13645 -57.2215 1.71111 -6.18497 -0.258541 0.746799 -0.93426 9.52298 -2.05303 -0.0 0.0 -0.0 -2.27986 -18.3049 1.31505 -11.0725 17.451 -62.0865 0.458144 12.7869 -0.0513365 31.8733 -0.00466491 4.01955 2.92773 18.6625 -11.6046 0.0 0.0 0.0 10.4304 -16.786 -8.37056 -12.3529 0.308368 1.86699 42.3533 25.8141 -5.4169 -26.8818 0.0 0.0 -0.0 0.0 -0.0 16.8857 -8.66545 -7.83494 1.1181 0.0476539 0.164955 -13.9512 10.7176 -2.21574 6.06281 -0.0 -0.0 0.0 0.0 0.0 
795.32379341 626.476 -1968.53838472 -5.31833212281 29.971874452 14.7545625749 3.31539 -0.904781 -6.16725 3.33639 -0.511285 -6.21209 3.38344 0.4403 -6.2175 3.32995 -0.545221 -6.20921 -10.2714 6.67884 11.6643 -9.90227 4.7205 13.002 -0.0 0.0 -0.0 9.12439 9.89446 17.2427 -13.4909 -18.7444 66.283 3.13645 -57.2215 1.71111 -6.18497 -0.258541 0.746799 -0.93426 9.52298 -2.05303 -0.0 0.0 -0.0 -2.27986 -18.3049 1.31505 -11.0725 17.451 -62.0865 0.458144 12.7869 -0.0513365 31.8733 -0.00466491 4.01955 2.92773 18.6625 -11.6046 0.0 0.0 0.0 10.4304 -16.786 -8.37056 -12.3529 0.308368 1.86699 42.3533 25.8141 -5.4169 -26.8818 0.0 0.0 -0.0 0.0 -0.0 16.8857 -8.66545 -7.83494 1.1181 0.0476539 0.164955 -13.9512 10.7176 -2.21574 6.06281 -0.0 -0.0 0.0 0.0 0.0 
795.520784465 626.476 -1968.70768903 -5.31622620652 29.93260797 14.7503446515 3.31539 -0.904781 -6.16725 3.33639 -0.511285 -6.21209 3.38344 0.4403 -6.2175 3.32995 -0.545221 -6.20921 -10.2714 6.67884 11.6643 -9.90227 4.7205 13.002 -0.0 0.0 -0.0 9.12439 9.89446 17.2427 -13.4909 -18.7444 66.283 3.13645 -57.2215 1.71111 -6.18497 -0.258541 0.746799 -0.93426 9.52298 -2.05303 -0.0 0.0 -0.0 -2.27986 -18.3049 1.31505 -11.0725 17.451 -62.0865 0.458144 12.7869 -0.0513365 31.8733 -0.00466491 4.01955 2.92773 18.6625 -11.6046 0.0 0.0 0.0 10.4304 -16.786 -8.37056 -12.3529 0.308368 1.86699 42.3533 25.8141 -5.4169 -26.8818 0.0 0.0 -0.0 0.0 -0.0 16.8857 -8.66545 -7.83494 1.1181 0.0476539 0.164955 -13.9512 10.7176 -2.21574 6.06281 -0.0 -0.0 0.0 0.0 0.0 
